<svg xmlns="http://www.w3.org/2000/svg" version="1.1" xmlns:xlink="http://www.w3.org/1999/xlink" xmlns:svgjs="http://svgjs.dev/svgjs" width="200" height="200"><svg t="1741613594519" class="icon" viewBox="0 0 1024 1024" version="1.1" xmlns="http://www.w3.org/2000/svg" p-id="18626" xmlns:xlink="http://www.w3.org/1999/xlink" width="200" height="200"><path d="M739.754667 733.866667c0-20.48-16.213333-36.693333-36.693334-36.693334h-349.866666a36.266667 36.266667 0 1 0 0 72.533334h349.866666c20.48 0 36.693333-16.213333 36.693334-35.84zM739.754667 530.517333c0-20.48-16.213333-36.693333-36.693334-36.693333h-349.866666a36.266667 36.266667 0 1 0 0 72.533333h349.866666c20.48 0 36.693333-16.213333 36.693334-35.84zM523.008 327.850667c0-20.48-16.213333-36.693333-35.84-36.693334h-133.973333a36.266667 36.266667 0 1 0 0 72.533334h133.973333c19.626667 0 35.84-16.213333 35.84-35.84z" fill="#1F7EE2" opacity=".4" p-id="18627"></path><path d="M341.333333 42.666667h370.346667c11.946667 0 23.04 0 34.986667 0.853333 64.853333 5.12 122.88 35.84 164.693333 85.333333 42.666667 49.493333 62.293333 112.64 56.32 177.493334l0.853333 443.733333c0.853333 8.533333 0.853333 19.626667 0 30.72a242.176 242.176 0 0 1-256 228.693333H341.333333c-4.266667 0.853333-8.533333 0.853333-12.8 0.853334-3.413333 0-6.826667-0.170667-10.24-0.341334a164.266667 164.266667 0 0 0-10.24-0.426666 244.053333 244.053333 0 0 1-165.546666-85.333334C100.693333 874.666667 81.066667 811.52 86.186667 746.666667v-443.733334C85.333333 295.253333 85.333333 283.306667 85.333333 272.213333 93.013333 138.24 208.213333 34.986667 341.333333 42.666667z m373.333334 72.533333h-375.466667a15.36 15.36 0 0 1-5.973333 0.170667 171.349333 171.349333 0 0 0-174.933334 161.109333c0 7.68 0 15.36 0.853334 23.893333v449.706667a170.666667 170.666667 0 0 0 155.306666 186.88c2.474667 0 5.12 0 7.68 0.170667 5.546667 0.170667 11.264 0.341333 17.066667-0.170667h375.466667c46.933333 2.56 91.306667-12.8 124.586666-43.52 34.133333-29.866667 53.76-71.68 56.32-116.906667 0.853333-7.68 0.853333-15.36 0-23.893333V302.933333c3.413333-48.64-10.24-92.16-39.253333-127.146666-29.866667-34.986667-70.826667-56.32-116.053333-59.733334-8.533333-0.853333-17.066667-0.853333-25.6-0.853333z" fill="#1F7EE2" p-id="18628"></path></svg><style>@media (prefers-color-scheme: light) { :root { filter: none; } }
@media (prefers-color-scheme: dark) { :root { filter: none; } }
</style></svg>